<svg id="eed1G2IBxHZ1" xmlns="http://www.w3.org/2000/svg" xmlns:xlink="http://www.w3.org/1999/xlink" viewBox="0 0 598 598" shape-rendering="geometricPrecision" text-rendering="geometricPrecision"><style><![CDATA[#eed1G2IBxHZ4_to {animation: eed1G2IBxHZ4_to__to 5000ms linear infinite normal forwards}@keyframes eed1G2IBxHZ4_to__to { 0% {transform: translate(2991.541382px,3045.432007px)} 16% {transform: translate(2364.168942px,3059.690477px)} 34% {transform: translate(2364.168942px,3059.690477px)} 52% {transform: translate(3725.213262px,2989.984132px)} 74% {transform: translate(3725.213262px,2989.984132px)} 100% {transform: translate(2991.541382px,3045.432007px)}}]]></style><g transform="matrix(.1 0 0-.1-.2 598)"><path d="M2974,5787c-25-50-97-179-159-287-20-36-52-92-70-125-38-72-76-141-119-215-55-98-64-114-89-160-25-47-57-105-124-225-203-361-199-354-222-403-11-23-25-48-31-55-13-14-138-241-135-244c1-2,33,7,71,18c335,103,710,158,979,144c248-12,556-65,765-130c136-43,126-45,90,22-16,32-47,88-68,125-20,36-64,115-97,174s-67,119-75,133-35,62-59,106-55,100-69,125-38,68-52,95c-56,104-82,150-99,175-9,14-25,41-34,60-28,54-75,142-96,176-23,37-88,157-109,199-8,17-20,37-27,45s-35,58-62,110c-66,123-87,160-93,160-3,0-10-10-16-23Z" fill="#5764f2"/><g id="eed1G2IBxHZ4_to" transform="translate(2991.541382,3045.432007)"><path d="M2805,3765c-145-36-224-82-338-198-80-81-105-114-137-181-69-146-83-207-78-359c4-112,9-144,33-212c15-44,38-97,51-117c13-21,24-40,24-44c0-12,90-122,127-154c178-157,428-229,636-185c170,36,302,107,415,225c40,41,115,152,132,195c7,17,16,39,21,50c34,86,41,132,41,268-1,128-3,149-28,217-33,94-80,187-109,220-13,14-38,42-56,63-45,54-138,123-217,162-151,76-343,94-517,50Z" transform="translate(-2991.541382,-3045.432007)" fill="#5764f2"/></g><path d="M1132,2478c-7-7-12-16-12-21c0-7-96-182-171-312-12-22-35-62-50-90-14-27-68-124-119-215s-98-176-104-190-23-43-37-65-29-50-33-62c-4-13-13-29-20-35-6-7-39-64-73-125l-61-113h2540h2540l-20,33c-11,17-45,79-77,137-31,58-62,111-67,118-6,6-7,12-3,12s-4,15-18,33-32,49-41,68c-8,19-22,45-30,59s-43,75-76,135c-34,61-65,117-71,125-5,8-17,31-26,50-10,19-29,53-43,75s-32,54-40,70c-8,17-22,41-31,55s-44,79-79,145c-34,66-64,122-66,124s-21-8-41-23c-131-96-223-152-437-262-237-121-618-256-805-284-31-5-110-18-176-30-103-18-159-21-390-21-264,0-323,4-526,41-161,30-453,111-534,149-11,5-65,28-120,51-200,84-506,252-599,331-48,40-71,50-84,37Z" fill="#5764f2"/></g></svg>